<svg width="167" height="41" viewBox="0 0 167 41" fill="none" xmlns="http://www.w3.org/2000/svg">
<path d="M37.1114 24.6072C37.8521 24.6072 38.4589 25.1658 38.3916 25.8505C38.033 29.4992 36.1051 32.9412 32.925 35.5485C29.3858 38.4503 24.5856 40.0805 19.5804 40.0805C14.5751 40.0805 9.77493 38.4503 6.2357 35.5485C3.05567 32.9412 1.12772 29.4992 0.769146 25.8505C0.701852 25.1658 1.30863 24.6072 2.04934 24.6072L37.1114 24.6072Z" fill="#1E1E1E"/>
<rect y="17.9209" width="39.1609" height="2.48337" rx="0.573086" fill="#1E1E1E"/>
<rect x="0.19104" y="21.3596" width="18.3388" height="2.29234" rx="0.573086" fill="#1E1E1E"/>
<rect x="20.8221" y="21.3596" width="18.3388" height="2.29234" rx="0.573086" fill="#1E1E1E"/>
<path fill-rule="evenodd" clip-rule="evenodd" d="M17.1262 2.24154C17.5345 2.19914 17.8606 1.89031 18.1232 1.57473C18.4539 1.17721 18.9835 0.919678 19.5805 0.919678C20.1774 0.919678 20.707 1.17721 21.0377 1.57473C21.3003 1.89031 21.6264 2.19915 22.0347 2.24154C26.1194 2.66562 29.9404 4.14002 32.8856 6.46462C36.0562 8.96714 37.9785 12.2708 38.336 15.7728C38.4031 16.43 37.7981 16.9662 37.0596 16.9662L2.10132 16.9662C1.3628 16.9662 0.757823 16.43 0.824917 15.7728C1.18243 12.2708 3.10467 8.96714 6.27529 6.46462C9.22049 4.14001 13.0415 2.66561 17.1262 2.24154Z" fill="#1E1E1E"/>
<path d="M47.9538 25.3819C47.9988 25.3931 48.0382 25.3988 48.0719 25.3988C48.1169 25.3988 48.1563 25.3988 48.19 25.3988C48.6512 25.3988 48.9324 25.1288 49.0336 24.5889L51.5306 12.9139C51.5868 12.6327 51.5756 12.4302 51.4969 12.3065C51.4294 12.1715 51.2719 12.1041 51.0245 12.1041C50.9907 12.1041 50.9513 12.1041 50.9064 12.1041C50.8726 12.1041 50.8332 12.1097 50.7883 12.1209L50.8051 12.0028H57.0813C58.0936 12.0028 58.9597 12.1659 59.6795 12.4921C60.4106 12.807 60.9899 13.2626 61.4173 13.8587C61.8447 14.4436 62.1146 15.1578 62.2271 16.0014C62.3508 16.8337 62.3002 17.7729 62.0753 18.8189C61.8616 19.8649 61.5185 20.8041 61.0461 21.6364C60.5737 22.4575 60.0001 23.1549 59.3252 23.7285C58.6504 24.3021 57.8799 24.7408 57.0138 25.0445C56.159 25.3482 55.2255 25.5 54.2132 25.5H47.937L47.9538 25.3819ZM52.0874 24.5383C52.0199 24.8983 52.0424 25.1232 52.1548 25.2132C52.2673 25.2919 52.4923 25.3313 52.8297 25.3313H54.2469C54.753 25.3313 55.203 25.2188 55.5966 24.9939C56.0015 24.7689 56.3615 24.4708 56.6764 24.0997C57.0026 23.7285 57.2838 23.3067 57.52 22.8343C57.7674 22.3619 57.9755 21.8839 58.1442 21.4002C58.3242 20.9166 58.4704 20.4442 58.5829 19.983C58.7066 19.5219 58.8078 19.117 58.8866 18.7683C58.954 18.4196 59.0272 18.0147 59.1059 17.5535C59.1846 17.0924 59.2352 16.62 59.2577 16.1363C59.2915 15.6414 59.2859 15.1578 59.2409 14.6854C59.2071 14.213 59.1059 13.7912 58.9372 13.42C58.7797 13.0489 58.5491 12.7508 58.2454 12.5258C57.9418 12.2896 57.5425 12.1715 57.0476 12.1715H55.6472C55.2986 12.1715 55.0511 12.2165 54.9049 12.3065C54.7587 12.3852 54.6462 12.6046 54.5675 12.9645L52.0874 24.5383ZM61.7254 25.3819C61.9054 25.3819 62.0516 25.3763 62.1641 25.365C62.2878 25.3425 62.3891 25.3032 62.4678 25.2469C62.5578 25.1907 62.6253 25.112 62.6702 25.0107C62.7265 24.9095 62.7715 24.7689 62.8052 24.5889L64.1887 18.144C64.2674 17.7841 64.2505 17.5648 64.1381 17.4861C64.0368 17.3961 63.8063 17.3511 63.4463 17.3511L63.4632 17.233L67.1412 17.0643L67.2762 17.1655L65.6902 24.5889C65.6228 24.9489 65.6396 25.1738 65.7409 25.2638C65.8421 25.3425 66.0727 25.3819 66.4326 25.3819L66.4157 25.5H61.7086L61.7254 25.3819ZM64.7117 14.3817C64.7792 14.1005 64.8804 13.8531 65.0154 13.6394C65.1616 13.4257 65.3303 13.2457 65.5215 13.0995C65.7127 12.9533 65.9152 12.8464 66.1289 12.7789C66.3426 12.7002 66.5563 12.6608 66.77 12.6608C67.2199 12.6608 67.5855 12.807 67.8667 13.0995C68.1591 13.3807 68.2435 13.8081 68.1197 14.3817C68.0522 14.6629 67.9454 14.9103 67.7992 15.124C67.6642 15.3378 67.5011 15.5177 67.3099 15.6639C67.1187 15.8102 66.9106 15.9226 66.6857 16.0014C66.472 16.0688 66.2526 16.1026 66.0277 16.1026C65.814 16.1026 65.6115 16.0688 65.4203 16.0014C65.2403 15.9226 65.0885 15.8102 64.9648 15.6639C64.841 15.5177 64.7511 15.3378 64.6948 15.124C64.6498 14.9103 64.6555 14.6629 64.7117 14.3817ZM72.2018 25.6012C71.482 25.6012 70.869 25.4775 70.3628 25.2301C69.8567 24.9826 69.4574 24.6621 69.165 24.2684C68.8725 23.8635 68.6813 23.4023 68.5913 22.8849C68.5126 22.3675 68.5295 21.8389 68.642 21.299C68.7544 20.7479 68.9681 20.2136 69.2831 19.6962C69.598 19.1788 70.0029 18.7177 70.4978 18.3128C71.004 17.9078 71.6001 17.5817 72.2862 17.3342C72.9723 17.0868 73.7484 16.963 74.6145 16.963C75.1881 16.963 75.6549 17.0249 76.0148 17.1486C76.386 17.2723 76.6728 17.4354 76.8752 17.6379C77.0777 17.8291 77.207 18.0541 77.2633 18.3128C77.3195 18.5715 77.3195 18.8358 77.2633 19.1057C77.162 19.5669 76.9596 19.938 76.6559 20.2192C76.3522 20.4892 75.9979 20.7029 75.593 20.8603C75.1993 21.0178 74.7832 21.1303 74.3445 21.1978C73.9059 21.2653 73.4953 21.3271 73.1129 21.3834C72.7305 21.4284 72.4043 21.4846 72.1344 21.5521C71.8757 21.6196 71.7238 21.732 71.6788 21.8895C71.6788 22.2607 71.7182 22.6319 71.7969 23.003C71.8757 23.3629 71.9994 23.6835 72.1681 23.9647C72.3368 24.2459 72.5561 24.4765 72.8261 24.6564C73.1073 24.8251 73.4391 24.9095 73.8215 24.9095C74.3276 24.9095 74.8 24.7633 75.2387 24.4708C75.6886 24.1784 76.0935 23.8129 76.4534 23.3742L76.4872 23.4417C76.296 23.7791 76.0429 24.0828 75.728 24.3527C75.413 24.6227 75.0644 24.8533 74.6819 25.0445C74.2995 25.2244 73.8946 25.365 73.4672 25.4663C73.051 25.5562 72.6292 25.6012 72.2018 25.6012ZM71.7969 20.4048C71.7632 20.596 71.7351 20.8041 71.7126 21.0291C71.6901 21.2428 71.6788 21.4677 71.6788 21.7039C71.7801 21.5914 71.9319 21.4958 72.1344 21.4171C72.3481 21.3271 72.5843 21.2315 72.843 21.1303C73.1016 21.0178 73.3716 20.8941 73.6528 20.7591C73.934 20.6129 74.1983 20.4329 74.4457 20.2192C74.7044 20.0055 74.935 19.7525 75.1375 19.46C75.3399 19.1563 75.4861 18.7908 75.5761 18.3634C75.6549 18.0147 75.638 17.7166 75.5255 17.4692C75.4243 17.2105 75.1825 17.0811 74.8 17.0811C74.4176 17.0811 74.0633 17.1767 73.7371 17.368C73.411 17.5479 73.1185 17.7897 72.8598 18.0934C72.6124 18.3971 72.3987 18.7514 72.2187 19.1563C72.0387 19.55 71.8982 19.9662 71.7969 20.4048ZM78.1778 23.3405L79.46 17.2836H78.4815L78.5152 17.0643C78.7851 17.0643 79.072 17.0024 79.3756 16.8787C79.6906 16.755 80.0055 16.5975 80.3204 16.4063C80.6466 16.2038 80.9559 15.9789 81.2484 15.7314C81.5521 15.484 81.822 15.2365 82.0582 14.9891C82.3057 14.7416 82.5081 14.5054 82.6656 14.2805C82.823 14.0443 82.9186 13.8474 82.9524 13.69H83.1211L82.3956 17.0643H83.7453L83.7116 17.2836H82.3619L81.029 23.526C80.9953 23.6723 80.9616 23.8353 80.9278 24.0153C80.9053 24.1953 80.8997 24.364 80.9109 24.5215C80.9334 24.6677 80.9841 24.797 81.0628 24.9095C81.1528 25.0107 81.2877 25.0613 81.4677 25.0613C81.6702 25.0613 81.8557 24.9882 82.0245 24.842C82.2044 24.6958 82.3169 24.5215 82.3619 24.319H82.4631C82.4069 24.5889 82.2775 24.8083 82.0751 24.977C81.8839 25.1457 81.6645 25.2807 81.4171 25.3819C81.1696 25.4719 80.9166 25.5281 80.6579 25.5506C80.3992 25.5844 80.1742 25.6012 79.983 25.6012C79.2182 25.6012 78.6839 25.4213 78.3802 25.0613C78.0878 24.6902 78.0203 24.1165 78.1778 23.3405ZM87.1668 25.3819C87.2118 25.3931 87.2512 25.3988 87.2849 25.3988C87.3299 25.3988 87.3693 25.3988 87.403 25.3988C87.8642 25.3988 88.1454 25.1288 88.2466 24.5889L90.7436 12.9139C90.7998 12.6327 90.7886 12.4302 90.7098 12.3065C90.6424 12.1715 90.4849 12.1041 90.2374 12.1041C90.2037 12.1041 90.1643 12.1041 90.1193 12.1041C90.0856 12.1041 90.0462 12.1097 90.0012 12.1209L90.0181 12.0028H96.2943C97.3066 12.0028 98.1727 12.1659 98.8925 12.4921C99.6236 12.807 100.203 13.2626 100.63 13.8587C101.058 14.4436 101.328 15.1578 101.44 16.0014C101.564 16.8337 101.513 17.7729 101.288 18.8189C101.075 19.8649 100.731 20.8041 100.259 21.6364C99.7867 22.4575 99.2131 23.1549 98.5382 23.7285C97.8633 24.3021 97.0929 24.7408 96.2268 25.0445C95.372 25.3482 94.4384 25.5 93.4261 25.5H87.15L87.1668 25.3819ZM91.3003 24.5383C91.2329 24.8983 91.2553 25.1232 91.3678 25.2132C91.4803 25.2919 91.7053 25.3313 92.0427 25.3313H93.4599C93.966 25.3313 94.4159 25.2188 94.8096 24.9939C95.2145 24.7689 95.5744 24.4708 95.8894 24.0997C96.2156 23.7285 96.4968 23.3067 96.733 22.8343C96.9804 22.3619 97.1885 21.8839 97.3572 21.4002C97.5372 20.9166 97.6834 20.4442 97.7959 19.983C97.9196 19.5219 98.0208 19.117 98.0995 18.7683C98.167 18.4196 98.2401 18.0147 98.3189 17.5535C98.3976 17.0924 98.4482 16.62 98.4707 16.1363C98.5045 15.6414 98.4988 15.1578 98.4538 14.6854C98.4201 14.213 98.3189 13.7912 98.1502 13.42C97.9927 13.0489 97.7621 12.7508 97.4584 12.5258C97.1547 12.2896 96.7554 12.1715 96.2606 12.1715H94.8602C94.5115 12.1715 94.2641 12.2165 94.1179 12.3065C93.9717 12.3852 93.8592 12.6046 93.7804 12.9645L91.3003 24.5383ZM105.698 25.6012C104.978 25.6012 104.365 25.4775 103.859 25.2301C103.352 24.9826 102.953 24.6621 102.661 24.2684C102.368 23.8635 102.177 23.4023 102.087 22.8849C102.008 22.3675 102.025 21.8389 102.138 21.299C102.25 20.7479 102.464 20.2136 102.779 19.6962C103.094 19.1788 103.499 18.7177 103.994 18.3128C104.5 17.9078 105.096 17.5817 105.782 17.3342C106.468 17.0868 107.244 16.963 108.11 16.963C108.684 16.963 109.151 17.0249 109.511 17.1486C109.882 17.2723 110.169 17.4354 110.371 17.6379C110.573 17.8291 110.703 18.0541 110.759 18.3128C110.815 18.5715 110.815 18.8358 110.759 19.1057C110.658 19.5669 110.455 19.938 110.152 20.2192C109.848 20.4892 109.494 20.7029 109.089 20.8603C108.695 21.0178 108.279 21.1303 107.84 21.1978C107.402 21.2653 106.991 21.3271 106.609 21.3834C106.226 21.4284 105.9 21.4846 105.63 21.5521C105.371 21.6196 105.22 21.732 105.175 21.8895C105.175 22.2607 105.214 22.6319 105.293 23.003C105.371 23.3629 105.495 23.6835 105.664 23.9647C105.833 24.2459 106.052 24.4765 106.322 24.6564C106.603 24.8251 106.935 24.9095 107.317 24.9095C107.823 24.9095 108.296 24.7633 108.734 24.4708C109.184 24.1784 109.589 23.8129 109.949 23.3742L109.983 23.4417C109.792 23.7791 109.539 24.0828 109.224 24.3527C108.909 24.6227 108.56 24.8533 108.178 25.0445C107.795 25.2244 107.39 25.365 106.963 25.4663C106.547 25.5562 106.125 25.6012 105.698 25.6012ZM105.293 20.4048C105.259 20.596 105.231 20.8041 105.208 21.0291C105.186 21.2428 105.175 21.4677 105.175 21.7039C105.276 21.5914 105.428 21.4958 105.63 21.4171C105.844 21.3271 106.08 21.2315 106.339 21.1303C106.597 21.0178 106.867 20.8941 107.149 20.7591C107.43 20.6129 107.694 20.4329 107.942 20.2192C108.2 20.0055 108.431 19.7525 108.633 19.46C108.836 19.1563 108.982 18.7908 109.072 18.3634C109.151 18.0147 109.134 17.7166 109.021 17.4692C108.92 17.2105 108.678 17.0811 108.296 17.0811C107.913 17.0811 107.559 17.1767 107.233 17.368C106.907 17.5479 106.614 17.7897 106.356 18.0934C106.108 18.3971 105.894 18.7514 105.715 19.1563C105.535 19.55 105.394 19.9662 105.293 20.4048ZM110.577 25.5L111.319 22.0245H111.437C111.336 22.4744 111.331 22.9074 111.42 23.3236C111.51 23.7397 111.674 24.1109 111.91 24.4371C112.146 24.752 112.444 25.0051 112.804 25.1963C113.175 25.3763 113.597 25.4663 114.069 25.4663C114.238 25.4663 114.412 25.4438 114.592 25.3988C114.784 25.3538 114.958 25.2863 115.115 25.1963C115.273 25.1063 115.408 24.9882 115.52 24.842C115.644 24.6845 115.728 24.5046 115.773 24.3021C115.841 23.9647 115.768 23.6891 115.554 23.4754C115.352 23.2505 115.076 23.048 114.727 22.8681C114.39 22.6768 114.019 22.4969 113.614 22.3282C113.209 22.1482 112.843 21.9401 112.517 21.7039C112.191 21.4677 111.932 21.1865 111.741 20.8603C111.561 20.5229 111.527 20.1068 111.64 19.6119C111.752 19.1057 111.949 18.6839 112.23 18.3465C112.512 18.0091 112.838 17.7391 113.209 17.5367C113.591 17.323 114.002 17.1767 114.44 17.098C114.879 17.008 115.312 16.963 115.74 16.963C116.212 16.963 116.617 17.0024 116.954 17.0811C117.292 17.1599 117.573 17.2499 117.798 17.3511C118.034 17.4411 118.225 17.5254 118.372 17.6042C118.529 17.6829 118.664 17.7223 118.776 17.7223C118.9 17.7223 119.018 17.6716 119.131 17.5704C119.243 17.4579 119.328 17.2892 119.384 17.0643H119.502L118.76 20.5398H118.641C118.743 20.0786 118.748 19.6456 118.658 19.2407C118.568 18.8245 118.405 18.459 118.169 18.144C117.933 17.8179 117.629 17.5648 117.258 17.3848C116.898 17.1936 116.482 17.098 116.01 17.098C115.65 17.098 115.295 17.188 114.947 17.368C114.609 17.5479 114.395 17.8404 114.306 18.2453C114.238 18.5715 114.306 18.847 114.508 19.072C114.722 19.2857 114.997 19.4825 115.335 19.6625C115.672 19.8424 116.043 20.0224 116.448 20.2024C116.853 20.3711 117.219 20.5792 117.545 20.8266C117.882 21.0628 118.141 21.3496 118.321 21.687C118.501 22.0245 118.54 22.4463 118.439 22.9524C118.338 23.4586 118.147 23.8803 117.865 24.2178C117.584 24.5552 117.252 24.8308 116.87 25.0445C116.488 25.2469 116.077 25.3931 115.638 25.4831C115.2 25.5619 114.767 25.6012 114.339 25.6012C113.867 25.6012 113.462 25.5619 113.125 25.4831C112.787 25.4044 112.5 25.32 112.264 25.2301C112.039 25.1288 111.848 25.0388 111.69 24.9601C111.544 24.8814 111.415 24.842 111.302 24.842C111.167 24.842 111.044 24.8983 110.931 25.0107C110.83 25.112 110.751 25.275 110.695 25.5H110.577ZM119.095 25.3819C119.275 25.3819 119.421 25.3763 119.534 25.365C119.657 25.3425 119.759 25.3032 119.837 25.2469C119.927 25.1907 119.995 25.112 120.04 25.0107C120.096 24.9095 120.141 24.7689 120.175 24.5889L121.558 18.144C121.637 17.7841 121.62 17.5648 121.508 17.4861C121.406 17.3961 121.176 17.3511 120.816 17.3511L120.833 17.233L124.511 17.0643L124.646 17.1655L123.06 24.5889C122.992 24.9489 123.009 25.1738 123.11 25.2638C123.212 25.3425 123.442 25.3819 123.802 25.3819L123.785 25.5H119.078L119.095 25.3819ZM122.081 14.3817C122.149 14.1005 122.25 13.8531 122.385 13.6394C122.531 13.4257 122.7 13.2457 122.891 13.0995C123.082 12.9533 123.285 12.8464 123.498 12.7789C123.712 12.7002 123.926 12.6608 124.14 12.6608C124.59 12.6608 124.955 12.807 125.236 13.0995C125.529 13.3807 125.613 13.8081 125.489 14.3817C125.422 14.6629 125.315 14.9103 125.169 15.124C125.034 15.3378 124.871 15.5177 124.679 15.6639C124.488 15.8102 124.28 15.9226 124.055 16.0014C123.842 16.0688 123.622 16.1026 123.397 16.1026C123.184 16.1026 122.981 16.0688 122.79 16.0014C122.61 15.9226 122.458 15.8102 122.334 15.6639C122.211 15.5177 122.121 15.3378 122.064 15.124C122.019 14.9103 122.025 14.6629 122.081 14.3817ZM124.038 28.4356C124.139 27.9295 124.33 27.519 124.611 27.204C124.892 26.9003 125.219 26.6641 125.59 26.4954C125.972 26.3267 126.388 26.2142 126.838 26.158C127.299 26.113 127.761 26.0905 128.222 26.0905C128.615 26.0905 129.003 26.0961 129.386 26.1074C129.768 26.1299 130.123 26.1411 130.449 26.1411H130.533C130.713 26.1411 130.983 26.1355 131.343 26.1242C131.714 26.113 132.085 26.0849 132.456 26.0399C132.828 25.9949 133.159 25.9218 133.452 25.8206C133.756 25.7193 133.924 25.5731 133.958 25.3819C133.98 25.2807 133.964 25.2019 133.907 25.1457C133.862 25.0782 133.795 25.0276 133.705 24.9939C133.615 24.9489 133.514 24.9207 133.401 24.9095C133.3 24.8983 133.21 24.8926 133.131 24.8926C132.895 24.8926 132.563 24.9432 132.136 25.0445C131.72 25.1345 131.259 25.2357 130.752 25.3482C130.258 25.4494 129.746 25.545 129.217 25.635C128.7 25.7362 128.21 25.7868 127.749 25.7868C127.457 25.7868 127.187 25.7587 126.939 25.7025C126.692 25.6575 126.484 25.5787 126.315 25.4663C126.147 25.3425 126.023 25.1794 125.944 24.977C125.877 24.7745 125.877 24.5271 125.944 24.2346C126.045 23.796 126.315 23.3798 126.754 22.9862C126.551 22.705 126.416 22.3675 126.349 21.9739C126.281 21.5802 126.304 21.1134 126.416 20.5735C126.574 19.8762 126.821 19.2969 127.159 18.8358C127.496 18.3746 127.901 18.0091 128.374 17.7391C128.846 17.4579 129.363 17.2611 129.926 17.1486C130.488 17.0249 131.067 16.963 131.663 16.963C131.776 16.5806 131.973 16.2094 132.254 15.8495C132.535 15.4896 132.856 15.169 133.216 14.8878C133.587 14.6067 133.975 14.3817 134.38 14.213C134.796 14.0443 135.19 13.9599 135.561 13.9599C136.157 13.9599 136.567 14.1174 136.792 14.4323C137.029 14.736 137.102 15.0734 137.012 15.4446C136.978 15.6133 136.911 15.782 136.809 15.9507C136.719 16.1082 136.601 16.2544 136.455 16.3894C136.309 16.5131 136.14 16.6144 135.949 16.6931C135.769 16.7606 135.572 16.7943 135.358 16.7943C135.021 16.7943 134.785 16.7156 134.65 16.5581C134.515 16.4007 134.408 16.2319 134.329 16.052C134.25 15.8608 134.16 15.6864 134.059 15.529C133.969 15.3715 133.801 15.2928 133.553 15.2928C133.384 15.2928 133.21 15.3434 133.03 15.4446C132.85 15.5458 132.676 15.6752 132.507 15.8326C132.35 15.9901 132.209 16.1701 132.085 16.3725C131.962 16.5637 131.866 16.7606 131.798 16.963C132.406 16.963 132.968 17.0249 133.486 17.1486C134.014 17.2723 134.459 17.4861 134.818 17.7897C135.032 17.6998 135.229 17.6323 135.409 17.5873C135.6 17.531 135.774 17.5029 135.932 17.5029C136.123 17.5029 136.275 17.5535 136.387 17.6548C136.511 17.7447 136.551 17.8853 136.506 18.0766C136.461 18.2565 136.354 18.4252 136.185 18.5827C136.016 18.7402 135.797 18.8976 135.527 19.0551C135.572 19.2801 135.589 19.5163 135.578 19.7637C135.578 20.0111 135.544 20.2811 135.476 20.5735C135.319 21.2821 135.066 21.867 134.717 22.3282C134.369 22.7893 133.958 23.1605 133.486 23.4417C133.013 23.7229 132.49 23.9197 131.917 24.0322C131.354 24.1447 130.775 24.2009 130.179 24.2009C129.459 24.2009 128.801 24.1222 128.205 23.9647C127.609 23.796 127.148 23.5035 126.821 23.0874C126.45 23.4248 126.214 23.8072 126.113 24.2346C126.034 24.5608 126.124 24.7802 126.383 24.8926C126.641 25.0051 126.973 25.0613 127.378 25.0613C127.738 25.0613 128.137 25.0332 128.576 24.977C129.015 24.9095 129.448 24.842 129.875 24.7745C130.314 24.707 130.73 24.6452 131.124 24.5889C131.529 24.5215 131.877 24.4877 132.17 24.4877C132.44 24.4877 132.715 24.5102 132.996 24.5552C133.278 24.5889 133.519 24.6677 133.722 24.7914C133.936 24.9039 134.093 25.067 134.194 25.2807C134.295 25.4831 134.307 25.7531 134.228 26.0905C134.115 26.6191 133.93 27.0522 133.671 27.3896C133.412 27.7383 133.098 28.0082 132.726 28.1994C132.366 28.4019 131.973 28.5425 131.545 28.6212C131.118 28.7 130.679 28.7393 130.229 28.7393C129.757 28.7393 129.307 28.7056 128.88 28.6381C128.464 28.5819 128.064 28.52 127.682 28.4525C127.311 28.385 126.962 28.3175 126.636 28.25C126.31 28.1938 126.006 28.1657 125.725 28.1657C125.309 28.1657 124.966 28.2669 124.696 28.4694C124.426 28.6718 124.257 28.9024 124.189 29.1611C124.156 29.2961 124.167 29.4142 124.223 29.5154C124.268 29.6166 124.358 29.6673 124.493 29.6673C124.639 29.6673 124.763 29.6054 124.864 29.4817C124.977 29.3692 125.095 29.2398 125.219 29.0936C125.354 28.9587 125.505 28.8293 125.674 28.7056C125.854 28.5931 126.079 28.5369 126.349 28.5369C126.72 28.5369 126.979 28.6775 127.125 28.9587C127.271 29.2511 127.311 29.566 127.243 29.9035C127.209 30.1059 127.131 30.2802 127.007 30.4265C126.883 30.5839 126.737 30.7189 126.568 30.8314C126.4 30.9439 126.22 31.0282 126.028 31.0845C125.837 31.1407 125.652 31.1688 125.472 31.1688C125.157 31.1688 124.892 31.0732 124.679 30.882C124.465 30.702 124.302 30.4771 124.189 30.2071C124.077 29.9372 124.009 29.6391 123.987 29.313C123.964 28.998 123.981 28.7056 124.038 28.4356ZM132.473 20.2192C132.53 19.9493 132.575 19.6568 132.608 19.3419C132.653 19.027 132.676 18.7289 132.676 18.4477C132.26 18.4365 131.956 18.3128 131.765 18.0766C131.573 17.8404 131.529 17.5085 131.63 17.0811C131.371 17.0924 131.135 17.1824 130.921 17.3511C130.719 17.5085 130.539 17.711 130.381 17.9585C130.224 18.2059 130.083 18.4871 129.959 18.802C129.847 19.1057 129.751 19.4206 129.673 19.7468C129.594 20.0618 129.526 20.3711 129.47 20.6748C129.414 20.9672 129.369 21.2259 129.335 21.4508C129.83 21.2259 130.348 21.0122 130.887 20.8097C131.439 20.6073 131.967 20.4104 132.473 20.2192ZM130.196 24.0828C130.533 24.0828 130.826 23.9591 131.073 23.7116C131.332 23.4642 131.545 23.1661 131.714 22.8174C131.894 22.4575 132.035 22.0751 132.136 21.6702C132.248 21.254 132.338 20.8885 132.406 20.5735C132.428 20.5398 132.44 20.506 132.44 20.4723C132.44 20.4386 132.445 20.4048 132.456 20.3711C131.95 20.5623 131.422 20.7591 130.871 20.9616C130.319 21.1528 129.796 21.3609 129.301 21.5858C129.268 21.8895 129.245 22.1932 129.234 22.4969C129.223 22.7893 129.245 23.0536 129.301 23.2898C129.358 23.526 129.453 23.7172 129.588 23.8635C129.735 24.0097 129.937 24.0828 130.196 24.0828ZM134.903 17.8572C135.049 18.0147 135.173 18.1834 135.274 18.3634C135.375 18.5321 135.454 18.7345 135.51 18.9707C136.028 18.6783 136.32 18.3859 136.387 18.0934C136.421 17.936 136.387 17.8179 136.286 17.7391C136.196 17.6491 136.073 17.6042 135.915 17.6042C135.769 17.6042 135.611 17.6323 135.443 17.6885C135.274 17.7335 135.094 17.7897 134.903 17.8572ZM132.659 18.3128C132.636 17.9753 132.558 17.6941 132.423 17.4692C132.288 17.233 132.063 17.1036 131.748 17.0811C131.658 17.4636 131.692 17.7616 131.849 17.9753C132.018 18.189 132.288 18.3015 132.659 18.3128ZM135.719 25.5L135.736 25.3819C135.916 25.3819 136.062 25.3763 136.174 25.365C136.298 25.3425 136.399 25.3032 136.478 25.2469C136.568 25.1907 136.636 25.112 136.681 25.0107C136.737 24.9095 136.782 24.7689 136.816 24.5889L138.199 18.144C138.278 17.7841 138.261 17.5648 138.148 17.4861C138.047 17.3961 137.817 17.3511 137.457 17.3511L137.474 17.233L141.152 17.0643L141.287 17.1655L140.882 19.072C141.275 18.3071 141.77 17.7672 142.366 17.4523C142.974 17.1261 143.632 16.963 144.34 16.963C145.195 16.963 145.808 17.2274 146.179 17.756C146.55 18.2846 146.64 18.9876 146.449 19.8649L145.437 24.5889C145.369 24.9489 145.386 25.1738 145.488 25.2638C145.589 25.3425 145.819 25.3819 146.179 25.3819L146.162 25.5H141.455L141.472 25.3819C141.652 25.3819 141.798 25.3763 141.911 25.365C142.035 25.3425 142.136 25.3032 142.214 25.2469C142.304 25.1907 142.372 25.112 142.417 25.0107C142.473 24.9095 142.518 24.7689 142.552 24.5889L143.598 19.73C143.643 19.505 143.671 19.2744 143.682 19.0382C143.705 18.802 143.694 18.5883 143.649 18.3971C143.604 18.1947 143.514 18.0316 143.379 17.9078C143.255 17.7729 143.058 17.7054 142.788 17.7054C142.552 17.7054 142.327 17.7616 142.113 17.8741C141.911 17.9866 141.725 18.1328 141.556 18.3128C141.388 18.4815 141.236 18.6671 141.101 18.8695C140.977 19.072 140.882 19.2688 140.814 19.46L139.701 24.5889C139.633 24.9489 139.65 25.1738 139.751 25.2638C139.852 25.3425 140.083 25.3819 140.443 25.3819L140.426 25.5H135.719ZM151.649 25.6012C150.929 25.6012 150.316 25.4775 149.81 25.2301C149.304 24.9826 148.905 24.6621 148.612 24.2684C148.32 23.8635 148.129 23.4023 148.039 22.8849C147.96 22.3675 147.977 21.8389 148.089 21.299C148.202 20.7479 148.416 20.2136 148.731 19.6962C149.045 19.1788 149.45 18.7177 149.945 18.3128C150.451 17.9078 151.048 17.5817 151.734 17.3342C152.42 17.0868 153.196 16.963 154.062 16.963C154.636 16.963 155.102 17.0249 155.462 17.1486C155.833 17.2723 156.12 17.4354 156.323 17.6379C156.525 17.8291 156.655 18.0541 156.711 18.3128C156.767 18.5715 156.767 18.8358 156.711 19.1057C156.61 19.5669 156.407 19.938 156.103 20.2192C155.8 20.4892 155.445 20.7029 155.04 20.8603C154.647 21.0178 154.231 21.1303 153.792 21.1978C153.353 21.2653 152.943 21.3271 152.56 21.3834C152.178 21.4284 151.852 21.4846 151.582 21.5521C151.323 21.6196 151.171 21.732 151.126 21.8895C151.126 22.2607 151.166 22.6319 151.244 23.003C151.323 23.3629 151.447 23.6835 151.616 23.9647C151.784 24.2459 152.004 24.4765 152.274 24.6564C152.555 24.8251 152.887 24.9095 153.269 24.9095C153.775 24.9095 154.248 24.7633 154.686 24.4708C155.136 24.1784 155.541 23.8129 155.901 23.3742L155.935 23.4417C155.743 23.7791 155.49 24.0828 155.175 24.3527C154.861 24.6227 154.512 24.8533 154.129 25.0445C153.747 25.2244 153.342 25.365 152.915 25.4663C152.499 25.5562 152.077 25.6012 151.649 25.6012ZM151.244 20.4048C151.211 20.596 151.183 20.8041 151.16 21.0291C151.138 21.2428 151.126 21.4677 151.126 21.7039C151.228 21.5914 151.379 21.4958 151.582 21.4171C151.796 21.3271 152.032 21.2315 152.29 21.1303C152.549 21.0178 152.819 20.8941 153.1 20.7591C153.381 20.6129 153.646 20.4329 153.893 20.2192C154.152 20.0055 154.382 19.7525 154.585 19.46C154.787 19.1563 154.934 18.7908 155.024 18.3634C155.102 18.0147 155.085 17.7166 154.973 17.4692C154.872 17.2105 154.63 17.0811 154.248 17.0811C153.865 17.0811 153.511 17.1767 153.185 17.368C152.858 17.5479 152.566 17.7897 152.307 18.0934C152.06 18.3971 151.846 18.7514 151.666 19.1563C151.486 19.55 151.346 19.9662 151.244 20.4048ZM156.529 25.3819C156.709 25.3819 156.855 25.3763 156.967 25.365C157.091 25.3425 157.192 25.3032 157.271 25.2469C157.361 25.1907 157.428 25.112 157.473 25.0107C157.53 24.9095 157.575 24.7689 157.608 24.5889L158.992 18.144C159.071 17.7841 159.054 17.5648 158.941 17.4861C158.84 17.3961 158.609 17.3511 158.249 17.3511L158.266 17.233L161.944 17.0643L162.079 17.1655L161.607 19.4094C161.776 19.0607 161.989 18.7402 162.248 18.4477C162.518 18.144 162.805 17.8853 163.108 17.6716C163.423 17.4467 163.75 17.2723 164.087 17.1486C164.436 17.0137 164.773 16.9462 165.099 16.9462C165.695 16.9462 166.106 17.1036 166.331 17.4186C166.556 17.7223 166.629 18.0597 166.55 18.4309C166.483 18.7683 166.297 19.0776 165.993 19.3588C165.701 19.64 165.336 19.7806 164.897 19.7806C164.559 19.7806 164.318 19.7018 164.171 19.5444C164.036 19.3869 163.93 19.2182 163.851 19.0382C163.783 18.847 163.705 18.6727 163.615 18.5152C163.536 18.3577 163.378 18.279 163.142 18.279C162.985 18.279 162.822 18.3296 162.653 18.4309C162.484 18.5321 162.327 18.6671 162.181 18.8358C162.034 18.9932 161.899 19.1788 161.776 19.3925C161.652 19.595 161.556 19.8031 161.489 20.0168L160.493 24.5889C160.426 24.9489 160.443 25.1738 160.544 25.2638C160.645 25.3425 160.876 25.3819 161.236 25.3819L161.219 25.5H156.512L156.529 25.3819Z" fill="#1E1E1E"/>
</svg>
