<svg width="120" height="20" viewBox="0 0 120 20" fill="none" xmlns="http://www.w3.org/2000/svg">
<path d="M0.792959 13.8819C0.83795 13.8931 0.877316 13.8988 0.911059 13.8988C0.95605 13.8988 0.995417 13.8988 1.02916 13.8988C1.49031 13.8988 1.7715 13.6288 1.87273 13.0889L4.36971 1.41388C4.42595 1.13269 4.4147 0.930236 4.33597 0.806511C4.26848 0.67154 4.11101 0.604054 3.86357 0.604054C3.82982 0.604054 3.79046 0.604054 3.74547 0.604054C3.71172 0.604054 3.67236 0.609678 3.62737 0.620925L3.64424 0.502826H9.92042C10.9327 0.502826 11.7988 0.665916 12.5186 0.992098C13.2497 1.30703 13.829 1.76256 14.2564 2.35869C14.6838 2.94356 14.9537 3.65779 15.0662 4.50136C15.1899 5.33369 15.1393 6.27287 14.9144 7.3189C14.7007 8.36493 14.3576 9.30411 13.8852 10.1364C13.4128 10.9575 12.8392 11.6549 12.1643 12.2285C11.4895 12.8021 10.719 13.2408 9.85294 13.5445C8.99812 13.8482 8.06456 14 7.05227 14H0.776088L0.792959 13.8819ZM4.92647 13.0383C4.85898 13.3983 4.88148 13.6232 4.99395 13.7132C5.10643 13.7919 5.33138 13.8313 5.66881 13.8313H7.08602C7.59216 13.8313 8.04207 13.7188 8.43573 13.4939C8.84065 13.2689 9.20057 12.9708 9.51551 12.5997C9.84169 12.2285 10.1229 11.8067 10.3591 11.3343C10.6065 10.8619 10.8146 10.3839 10.9833 9.90023C11.1633 9.41658 11.3095 8.94418 11.422 8.48303C11.5457 8.02188 11.6469 7.61696 11.7257 7.26828C11.7932 6.91961 11.8663 6.51469 11.945 6.05354C12.0237 5.59238 12.0743 5.11998 12.0968 4.63634C12.1306 4.14144 12.125 3.65779 12.08 3.18539C12.0462 2.71299 11.945 2.2912 11.7763 1.92003C11.6188 1.54886 11.3882 1.25079 11.0846 1.02584C10.7809 0.78964 10.3816 0.67154 9.88668 0.67154H8.48635C8.13767 0.67154 7.89022 0.716531 7.744 0.806511C7.59778 0.885245 7.48531 1.10457 7.40657 1.4645L4.92647 13.0383ZM14.5646 13.8819C14.7445 13.8819 14.8907 13.8763 15.0032 13.865C15.1269 13.8425 15.2282 13.8032 15.3069 13.7469C15.3969 13.6907 15.4644 13.612 15.5094 13.5107C15.5656 13.4095 15.6106 13.2689 15.6443 13.0889L17.0278 6.64404C17.1065 6.28412 17.0897 6.06479 16.9772 5.98605C16.8759 5.89607 16.6454 5.85108 16.2854 5.85108L16.3023 5.73298L19.9803 5.56427L20.1153 5.66549L18.5294 13.0889C18.4619 13.4489 18.4787 13.6738 18.58 13.7638C18.6812 13.8425 18.9118 13.8819 19.2717 13.8819L19.2548 14H14.5477L14.5646 13.8819ZM17.5508 2.8817C17.6183 2.60051 17.7195 2.35306 17.8545 2.13936C18.0007 1.92565 18.1694 1.74569 18.3606 1.59947C18.5518 1.45325 18.7543 1.3464 18.968 1.27891C19.1817 1.20018 19.3954 1.16081 19.6091 1.16081C20.059 1.16081 20.4246 1.30703 20.7058 1.59947C20.9982 1.88066 21.0826 2.30807 20.9588 2.8817C20.8914 3.16289 20.7845 3.41034 20.6383 3.62405C20.5033 3.83775 20.3402 4.01771 20.149 4.16393C19.9578 4.31015 19.7497 4.42263 19.5248 4.50136C19.3111 4.56885 19.0917 4.60259 18.8668 4.60259C18.6531 4.60259 18.4506 4.56885 18.2594 4.50136C18.0794 4.42263 17.9276 4.31015 17.8039 4.16393C17.6802 4.01771 17.5902 3.83775 17.5339 3.62405C17.4889 3.41034 17.4946 3.16289 17.5508 2.8817ZM25.0409 14.1012C24.3211 14.1012 23.7081 13.9775 23.202 13.7301C22.6958 13.4826 22.2965 13.1621 22.0041 12.7684C21.7116 12.3635 21.5204 11.9023 21.4305 11.3849C21.3517 10.8675 21.3686 10.3389 21.4811 9.799C21.5935 9.24787 21.8073 8.71361 22.1222 8.19621C22.4371 7.67882 22.842 7.21767 23.3369 6.81275C23.8431 6.40784 24.4392 6.08166 25.1253 5.83421C25.8114 5.58676 26.5875 5.46304 27.4536 5.46304C28.0272 5.46304 28.494 5.5249 28.8539 5.64862C29.2251 5.77235 29.5119 5.93544 29.7143 6.1379C29.9168 6.32911 30.0462 6.55406 30.1024 6.81275C30.1586 7.07145 30.1586 7.33577 30.1024 7.60571C30.0012 8.06687 29.7987 8.43804 29.495 8.71923C29.1913 8.98917 28.837 9.20288 28.4321 9.36035C28.0384 9.51781 27.6223 9.63029 27.1836 9.69778C26.745 9.76526 26.3344 9.82712 25.952 9.88336C25.5696 9.92835 25.2434 9.98459 24.9735 10.0521C24.7148 10.1196 24.5629 10.232 24.5179 10.3895C24.5179 10.7607 24.5573 11.1319 24.636 11.503C24.7148 11.8629 24.8385 12.1835 25.0072 12.4647C25.1759 12.7459 25.3952 12.9765 25.6652 13.1564C25.9464 13.3251 26.2782 13.4095 26.6606 13.4095C27.1668 13.4095 27.6392 13.2633 28.0778 12.9708C28.5277 12.6784 28.9326 12.3129 29.2926 11.8742L29.3263 11.9417C29.1351 12.2791 28.882 12.5828 28.5671 12.8527C28.2522 13.1227 27.9035 13.3533 27.5211 13.5445C27.1386 13.7244 26.7337 13.865 26.3063 13.9663C25.8901 14.0562 25.4684 14.1012 25.0409 14.1012ZM24.636 8.90482C24.6023 9.09603 24.5742 9.30411 24.5517 9.52906C24.5292 9.74277 24.5179 9.96772 24.5179 10.2039C24.6192 10.0914 24.771 9.99584 24.9735 9.9171C25.1872 9.82712 25.4234 9.73152 25.6821 9.63029C25.9408 9.51781 26.2107 9.39409 26.4919 9.25912C26.7731 9.1129 27.0374 8.93294 27.2849 8.71923C27.5435 8.50553 27.7741 8.25245 27.9766 7.96001C28.179 7.65633 28.3253 7.29078 28.4152 6.86337C28.494 6.51469 28.4771 6.21663 28.3646 5.96918C28.2634 5.71049 28.0216 5.58114 27.6392 5.58114C27.2567 5.58114 26.9024 5.67674 26.5763 5.86795C26.2501 6.04791 25.9576 6.28974 25.6989 6.59343C25.4515 6.89711 25.2378 7.25141 25.0578 7.65633C24.8779 8.05 24.7373 8.46616 24.636 8.90482ZM31.0169 11.8405L32.2991 5.78359H31.3206L31.3543 5.56427C31.6242 5.56427 31.9111 5.5024 32.2148 5.37868C32.5297 5.25496 32.8446 5.09749 33.1596 4.90628C33.4857 4.70382 33.795 4.47887 34.0875 4.23142C34.3912 3.98397 34.6611 3.73652 34.8973 3.48908C35.1448 3.24163 35.3472 3.00543 35.5047 2.78047C35.6622 2.54427 35.7578 2.34744 35.7915 2.18997H35.9602L35.2347 5.56427H36.5845L36.5507 5.78359H35.201L33.8682 12.026C33.8344 12.1723 33.8007 12.3353 33.7669 12.5153C33.7444 12.6953 33.7388 12.864 33.7501 13.0215C33.7725 13.1677 33.8232 13.297 33.9019 13.4095C33.9919 13.5107 34.1269 13.5613 34.3068 13.5613C34.5093 13.5613 34.6949 13.4882 34.8636 13.342C35.0435 13.1958 35.156 13.0215 35.201 12.819H35.3022C35.246 13.0889 35.1166 13.3083 34.9142 13.477C34.723 13.6457 34.5036 13.7807 34.2562 13.8819C34.0087 13.9719 33.7557 14.0281 33.497 14.0506C33.2383 14.0844 33.0133 14.1012 32.8221 14.1012C32.0573 14.1012 31.523 13.9213 31.2193 13.5613C30.9269 13.1902 30.8594 12.6165 31.0169 11.8405ZM40.0059 13.8819C40.0509 13.8931 40.0903 13.8988 40.124 13.8988C40.169 13.8988 40.2084 13.8988 40.2421 13.8988C40.7033 13.8988 40.9845 13.6288 41.0857 13.0889L43.5827 1.41388C43.6389 1.13269 43.6277 0.930236 43.5489 0.806511C43.4815 0.67154 43.324 0.604054 43.0765 0.604054C43.0428 0.604054 43.0034 0.604054 42.9584 0.604054C42.9247 0.604054 42.8853 0.609678 42.8403 0.620925L42.8572 0.502826H49.1334C50.1457 0.502826 51.0118 0.665916 51.7316 0.992098C52.4627 1.30703 53.042 1.76256 53.4694 2.35869C53.8968 2.94356 54.1667 3.65779 54.2792 4.50136C54.4029 5.33369 54.3523 6.27287 54.1274 7.3189C53.9137 8.36493 53.5706 9.30411 53.0982 10.1364C52.6258 10.9575 52.0522 11.6549 51.3773 12.2285C50.7025 12.8021 49.932 13.2408 49.0659 13.5445C48.2111 13.8482 47.2775 14 46.2653 14H39.9891L40.0059 13.8819ZM44.1395 13.0383C44.072 13.3983 44.0945 13.6232 44.2069 13.7132C44.3194 13.7919 44.5444 13.8313 44.8818 13.8313H46.299C46.8051 13.8313 47.255 13.7188 47.6487 13.4939C48.0536 13.2689 48.4136 12.9708 48.7285 12.5997C49.0547 12.2285 49.3359 11.8067 49.5721 11.3343C49.8195 10.8619 50.0276 10.3839 50.1963 9.90023C50.3763 9.41658 50.5225 8.94418 50.635 8.48303C50.7587 8.02188 50.8599 7.61696 50.9387 7.26828C51.0061 6.91961 51.0792 6.51469 51.158 6.05354C51.2367 5.59238 51.2873 5.11998 51.3098 4.63634C51.3436 4.14144 51.3379 3.65779 51.293 3.18539C51.2592 2.71299 51.158 2.2912 50.9893 1.92003C50.8318 1.54886 50.6012 1.25079 50.2975 1.02584C49.9939 0.78964 49.5946 0.67154 49.0997 0.67154H47.6993C47.3507 0.67154 47.1032 0.716531 46.957 0.806511C46.8108 0.885245 46.6983 1.10457 46.6196 1.4645L44.1395 13.0383ZM58.5367 14.1012C57.8169 14.1012 57.2039 13.9775 56.6978 13.7301C56.1916 13.4826 55.7923 13.1621 55.4999 12.7684C55.2074 12.3635 55.0162 11.9023 54.9262 11.3849C54.8475 10.8675 54.8644 10.3389 54.9769 9.799C55.0893 9.24787 55.303 8.71361 55.618 8.19621C55.9329 7.67882 56.3378 7.21767 56.8327 6.81275C57.3389 6.40784 57.935 6.08166 58.6211 5.83421C59.3072 5.58676 60.0833 5.46304 60.9494 5.46304C61.523 5.46304 61.9898 5.5249 62.3497 5.64862C62.7209 5.77235 63.0077 5.93544 63.2101 6.1379C63.4126 6.32911 63.5419 6.55406 63.5982 6.81275C63.6544 7.07145 63.6544 7.33577 63.5982 7.60571C63.497 8.06687 63.2945 8.43804 62.9908 8.71923C62.6871 8.98917 62.3328 9.20288 61.9279 9.36035C61.5342 9.51781 61.1181 9.63029 60.6794 9.69778C60.2408 9.76526 59.8302 9.82712 59.4478 9.88336C59.0654 9.92835 58.7392 9.98459 58.4693 10.0521C58.2106 10.1196 58.0587 10.232 58.0137 10.3895C58.0137 10.7607 58.0531 11.1319 58.1318 11.503C58.2106 11.8629 58.3343 12.1835 58.503 12.4647C58.6717 12.7459 58.891 12.9765 59.161 13.1564C59.4422 13.3251 59.774 13.4095 60.1564 13.4095C60.6625 13.4095 61.1349 13.2633 61.5736 12.9708C62.0235 12.6784 62.4284 12.3129 62.7884 11.8742L62.8221 11.9417C62.6309 12.2791 62.3778 12.5828 62.0629 12.8527C61.7479 13.1227 61.3993 13.3533 61.0168 13.5445C60.6344 13.7244 60.2295 13.865 59.8021 13.9663C59.3859 14.0562 58.9642 14.1012 58.5367 14.1012ZM58.1318 8.90482C58.0981 9.09603 58.07 9.30411 58.0475 9.52906C58.025 9.74277 58.0137 9.96772 58.0137 10.2039C58.115 10.0914 58.2668 9.99584 58.4693 9.9171C58.683 9.82712 58.9192 9.73152 59.1779 9.63029C59.4366 9.51781 59.7065 9.39409 59.9877 9.25912C60.2689 9.1129 60.5332 8.93294 60.7806 8.71923C61.0393 8.50553 61.2699 8.25245 61.4724 7.96001C61.6748 7.65633 61.8211 7.29078 61.911 6.86337C61.9898 6.51469 61.9729 6.21663 61.8604 5.96918C61.7592 5.71049 61.5174 5.58114 61.1349 5.58114C60.7525 5.58114 60.3982 5.67674 60.072 5.86795C59.7459 6.04791 59.4534 6.28974 59.1947 6.59343C58.9473 6.89711 58.7336 7.25141 58.5536 7.65633C58.3737 8.05 58.2331 8.46616 58.1318 8.90482ZM63.416 14L64.1584 10.5245H64.2765C64.1752 10.9744 64.1696 11.4074 64.2596 11.8236C64.3496 12.2397 64.5127 12.6109 64.7489 12.9371C64.9851 13.252 65.2831 13.5051 65.6431 13.6963C66.0142 13.8763 66.436 13.9663 66.9084 13.9663C67.0771 13.9663 67.2515 13.9438 67.4314 13.8988C67.6226 13.8538 67.797 13.7863 67.9544 13.6963C68.1119 13.6063 68.2469 13.4882 68.3594 13.342C68.4831 13.1845 68.5674 13.0046 68.6124 12.8021C68.6799 12.4647 68.6068 12.1891 68.3931 11.9754C68.1906 11.7505 67.9151 11.548 67.5664 11.3681C67.229 11.1768 66.8578 10.9969 66.4529 10.8282C66.048 10.6482 65.6824 10.4401 65.3562 10.2039C65.0301 9.96772 64.7714 9.68653 64.5802 9.36035C64.4002 9.02292 64.3664 8.60675 64.4789 8.11186C64.5914 7.60571 64.7882 7.18393 65.0694 6.8465C65.3506 6.50907 65.6768 6.23912 66.048 6.03667C66.4304 5.82296 66.8409 5.67674 67.2796 5.59801C67.7182 5.50803 68.1513 5.46304 68.5787 5.46304C69.0511 5.46304 69.456 5.5024 69.7934 5.58114C70.1309 5.65987 70.4121 5.74985 70.637 5.85108C70.8732 5.94106 71.0644 6.02542 71.2106 6.10415C71.3681 6.18289 71.5031 6.22225 71.6156 6.22225C71.7393 6.22225 71.8574 6.17164 71.9699 6.07041C72.0823 5.95793 72.1667 5.78922 72.2229 5.56427H72.341L71.5987 9.03979H71.4806C71.5818 8.57863 71.5874 8.1456 71.4975 7.74069C71.4075 7.32452 71.2444 6.95897 71.0082 6.64404C70.772 6.31786 70.4683 6.06479 70.0971 5.88482C69.7372 5.69361 69.321 5.59801 68.8486 5.59801C68.4887 5.59801 68.1344 5.68799 67.7857 5.86795C67.4483 6.04791 67.2346 6.34035 67.1446 6.74527C67.0771 7.07145 67.1446 7.34702 67.3471 7.57197C67.5608 7.78568 67.8363 7.98251 68.1738 8.16247C68.5112 8.34243 68.8824 8.5224 69.2873 8.70236C69.6922 8.87107 70.0578 9.07915 70.3839 9.3266C70.7214 9.5628 70.9801 9.84962 71.16 10.187C71.34 10.5245 71.3794 10.9463 71.2781 11.4524C71.1769 11.9586 70.9857 12.3803 70.7045 12.7178C70.4233 13.0552 70.0915 13.3308 69.7091 13.5445C69.3267 13.7469 68.9161 13.8931 68.4775 13.9831C68.0388 14.0619 67.6058 14.1012 67.1784 14.1012C66.706 14.1012 66.301 14.0619 65.9636 13.9831C65.6262 13.9044 65.3394 13.82 65.1032 13.7301C64.8782 13.6288 64.687 13.5388 64.5295 13.4601C64.3833 13.3814 64.254 13.342 64.1415 13.342C64.0065 13.342 63.8828 13.3983 63.7703 13.5107C63.6691 13.612 63.5904 13.775 63.5341 14H63.416ZM71.9341 13.8819C72.1141 13.8819 72.2603 13.8763 72.3728 13.865C72.4965 13.8425 72.5978 13.8032 72.6765 13.7469C72.7665 13.6907 72.834 13.612 72.8789 13.5107C72.9352 13.4095 72.9802 13.2689 73.0139 13.0889L74.3974 6.64404C74.4761 6.28412 74.4592 6.06479 74.3468 5.98605C74.2455 5.89607 74.015 5.85108 73.655 5.85108L73.6719 5.73298L77.3499 5.56427L77.4849 5.66549L75.8989 13.0889C75.8314 13.4489 75.8483 13.6738 75.9495 13.7638C76.0508 13.8425 76.2814 13.8819 76.6413 13.8819L76.6244 14H71.9173L71.9341 13.8819ZM74.9204 2.8817C74.9879 2.60051 75.0891 2.35306 75.2241 2.13936C75.3703 1.92565 75.539 1.74569 75.7302 1.59947C75.9214 1.45325 76.1239 1.3464 76.3376 1.27891C76.5513 1.20018 76.765 1.16081 76.9787 1.16081C77.4286 1.16081 77.7942 1.30703 78.0754 1.59947C78.3678 1.88066 78.4521 2.30807 78.3284 2.8817C78.2609 3.16289 78.1541 3.41034 78.0079 3.62405C77.8729 3.83775 77.7098 4.01771 77.5186 4.16393C77.3274 4.31015 77.1193 4.42263 76.8944 4.50136C76.6806 4.56885 76.4613 4.60259 76.2364 4.60259C76.0227 4.60259 75.8202 4.56885 75.629 4.50136C75.449 4.42263 75.2972 4.31015 75.1735 4.16393C75.0497 4.01771 74.9598 3.83775 74.9035 3.62405C74.8585 3.41034 74.8642 3.16289 74.9204 2.8817ZM76.8767 16.9356C76.9779 16.4295 77.1691 16.019 77.4503 15.704C77.7315 15.4003 78.0577 15.1641 78.4289 14.9954C78.8113 14.8267 79.2274 14.7142 79.6773 14.658C80.1385 14.613 80.5997 14.5905 81.0608 14.5905C81.4545 14.5905 81.8425 14.5961 82.2249 14.6074C82.6074 14.6299 82.9617 14.6411 83.2878 14.6411H83.3722C83.5522 14.6411 83.8221 14.6355 84.182 14.6242C84.5532 14.613 84.9244 14.5849 85.2955 14.5399C85.6667 14.4949 85.9985 14.4218 86.291 14.3206C86.5947 14.2193 86.7634 14.0731 86.7971 13.8819C86.8196 13.7807 86.8027 13.7019 86.7465 13.6457C86.7015 13.5782 86.634 13.5276 86.544 13.4939C86.4541 13.4489 86.3528 13.4207 86.2403 13.4095C86.1391 13.3983 86.0491 13.3926 85.9704 13.3926C85.7342 13.3926 85.4024 13.4432 84.975 13.5445C84.5588 13.6345 84.0977 13.7357 83.5915 13.8482C83.0966 13.9494 82.5849 14.045 82.0562 14.135C81.5388 14.2362 81.0496 14.2868 80.5884 14.2868C80.296 14.2868 80.026 14.2587 79.7786 14.2025C79.5311 14.1575 79.323 14.0787 79.1543 13.9663C78.9856 13.8425 78.8619 13.6794 78.7832 13.477C78.7157 13.2745 78.7157 13.0271 78.7832 12.7346C78.8844 12.296 79.1543 11.8798 79.593 11.4862C79.3905 11.205 79.2556 10.8675 79.1881 10.4739C79.1206 10.0802 79.1431 9.61342 79.2556 9.07353C79.413 8.37618 79.6605 7.79692 79.9979 7.33577C80.3353 6.87462 80.7403 6.50907 81.2127 6.23912C81.6851 5.95793 82.2024 5.7611 82.7648 5.64862C83.3272 5.5249 83.9065 5.46304 84.5026 5.46304C84.6151 5.08062 84.8119 4.70944 85.0931 4.34952C85.3743 3.9896 85.6948 3.66904 86.0548 3.38785C86.4259 3.10666 86.814 2.8817 87.2189 2.71299C87.6351 2.54427 88.0287 2.45992 88.3999 2.45992C88.996 2.45992 89.4066 2.61738 89.6315 2.93232C89.8677 3.236 89.9408 3.57343 89.8508 3.94461C89.8171 4.11332 89.7496 4.28203 89.6484 4.45075C89.5584 4.60822 89.4403 4.75444 89.2941 4.88941C89.1479 5.01313 88.9792 5.11436 88.7879 5.19309C88.608 5.26058 88.4111 5.29432 88.1974 5.29432C87.86 5.29432 87.6238 5.21559 87.4888 5.05812C87.3539 4.90065 87.247 4.73194 87.1683 4.55198C87.0895 4.36077 86.9996 4.18643 86.8983 4.02896C86.8084 3.8715 86.6396 3.79276 86.3922 3.79276C86.2235 3.79276 86.0491 3.84338 85.8692 3.94461C85.6892 4.04583 85.5149 4.17518 85.3462 4.33265C85.1887 4.49012 85.0481 4.67008 84.9244 4.87254C84.8007 5.06375 84.705 5.26058 84.6376 5.46304C85.2449 5.46304 85.8073 5.5249 86.3247 5.64862C86.8533 5.77235 87.2976 5.98605 87.6576 6.28974C87.8713 6.19976 88.0681 6.13227 88.2481 6.08728C88.4393 6.03104 88.6136 6.00292 88.7711 6.00292C88.9623 6.00292 89.1141 6.05354 89.2266 6.15477C89.3503 6.24475 89.3897 6.38534 89.3447 6.57655C89.2997 6.75652 89.1929 6.92523 89.0241 7.0827C88.8554 7.24016 88.6361 7.39763 88.3662 7.5551C88.4111 7.78005 88.428 8.01625 88.4168 8.2637C88.4168 8.51115 88.383 8.78109 88.3155 9.07353C88.1581 9.78213 87.905 10.367 87.5563 10.8282C87.2076 11.2893 86.7971 11.6605 86.3247 11.9417C85.8523 12.2229 85.3293 12.4197 84.7557 12.5322C84.1933 12.6447 83.614 12.7009 83.0179 12.7009C82.298 12.7009 81.6401 12.6222 81.0439 12.4647C80.4478 12.296 79.9867 12.0035 79.6605 11.5874C79.2893 11.9248 79.0531 12.3072 78.9519 12.7346C78.8731 13.0608 78.9631 13.2802 79.2218 13.3926C79.4805 13.5051 79.8123 13.5613 80.2172 13.5613C80.5772 13.5613 80.9765 13.5332 81.4151 13.477C81.8538 13.4095 82.2868 13.342 82.7142 13.2745C83.1529 13.207 83.569 13.1452 83.9627 13.0889C84.3676 13.0215 84.7163 12.9877 85.0087 12.9877C85.2787 12.9877 85.5542 13.0102 85.8354 13.0552C86.1166 13.0889 86.3584 13.1677 86.5609 13.2914C86.7746 13.4039 86.9321 13.567 87.0333 13.7807C87.1345 13.9831 87.1458 14.2531 87.0671 14.5905C86.9546 15.1191 86.769 15.5522 86.5103 15.8896C86.2516 16.2383 85.9367 16.5082 85.5655 16.6994C85.2056 16.9019 84.8119 17.0425 84.3845 17.1212C83.9571 17.2 83.5184 17.2393 83.0685 17.2393C82.5961 17.2393 82.1462 17.2056 81.7188 17.1381C81.3026 17.0819 80.9033 17.02 80.5209 16.9525C80.1497 16.885 79.8011 16.8175 79.4749 16.75C79.1487 16.6938 78.845 16.6657 78.5638 16.6657C78.1477 16.6657 77.8046 16.7669 77.5347 16.9694C77.2647 17.1718 77.096 17.4024 77.0285 17.6611C76.9948 17.7961 77.006 17.9142 77.0623 18.0154C77.1073 18.1166 77.1972 18.1673 77.3322 18.1673C77.4784 18.1673 77.6022 18.1054 77.7034 17.9817C77.8159 17.8692 77.934 17.7398 78.0577 17.5936C78.1927 17.4587 78.3445 17.3293 78.5132 17.2056C78.6932 17.0931 78.9181 17.0369 79.1881 17.0369C79.5592 17.0369 79.8179 17.1775 79.9642 17.4587C80.1104 17.7511 80.1497 18.066 80.0823 18.4035C80.0485 18.6059 79.9698 18.7802 79.8461 18.9265C79.7223 19.0839 79.5761 19.2189 79.4074 19.3314C79.2387 19.4439 79.0587 19.5282 78.8675 19.5845C78.6763 19.6407 78.4907 19.6688 78.3108 19.6688C77.9958 19.6688 77.7315 19.5732 77.5178 19.382C77.3041 19.202 77.141 18.9771 77.0285 18.7071C76.9161 18.4372 76.8486 18.1391 76.8261 17.813C76.8036 17.498 76.8204 17.2056 76.8767 16.9356ZM85.3124 8.71923C85.3687 8.44929 85.4136 8.15685 85.4474 7.84191C85.4924 7.52698 85.5149 7.22892 85.5149 6.94773C85.0987 6.93648 84.795 6.81275 84.6038 6.57655C84.4126 6.34035 84.3676 6.00855 84.4688 5.58114C84.2101 5.59238 83.9739 5.68237 83.7602 5.85108C83.5578 6.00855 83.3778 6.21101 83.2204 6.45845C83.0629 6.7059 82.9223 6.98709 82.7986 7.30203C82.6861 7.60571 82.5905 7.92065 82.5118 8.24683C82.433 8.56176 82.3655 8.87107 82.3093 9.17476C82.2531 9.4672 82.2081 9.72589 82.1743 9.95085C82.6692 9.72589 83.1866 9.51219 83.7265 9.30973C84.2776 9.10727 84.8063 8.91044 85.3124 8.71923ZM83.0348 12.5828C83.3722 12.5828 83.6646 12.4591 83.9121 12.2116C84.1708 11.9642 84.3845 11.6661 84.5532 11.3174C84.7332 10.9575 84.8738 10.5751 84.975 10.1702C85.0875 9.75401 85.1774 9.38847 85.2449 9.07353C85.2674 9.03979 85.2787 9.00605 85.2787 8.9723C85.2787 8.93856 85.2843 8.90482 85.2955 8.87107C84.7894 9.06228 84.2608 9.25912 83.7096 9.46157C83.1585 9.65279 82.6355 9.86087 82.1406 10.0858C82.1068 10.3895 82.0843 10.6932 82.0731 10.9969C82.0618 11.2893 82.0843 11.5536 82.1406 11.7898C82.1968 12.026 82.2924 12.2172 82.4274 12.3635C82.5736 12.5097 82.7761 12.5828 83.0348 12.5828ZM87.7419 6.35723C87.8881 6.51469 88.0119 6.68341 88.1131 6.86337C88.2143 7.03208 88.293 7.23454 88.3493 7.47074C88.8667 7.1783 89.1591 6.88586 89.2266 6.59343C89.2603 6.43596 89.2266 6.31786 89.1254 6.23912C89.0354 6.14914 88.9117 6.10415 88.7542 6.10415C88.608 6.10415 88.4505 6.13227 88.2818 6.18851C88.1131 6.2335 87.9331 6.28974 87.7419 6.35723ZM85.498 6.81275C85.4755 6.47532 85.3968 6.19413 85.2618 5.96918C85.1268 5.73298 84.9019 5.60363 84.5869 5.58114C84.497 5.96356 84.5307 6.26162 84.6882 6.47533C84.8569 6.68903 85.1268 6.80151 85.498 6.81275ZM88.5581 14L88.5749 13.8819C88.7549 13.8819 88.9011 13.8763 89.0136 13.865C89.1373 13.8425 89.2386 13.8032 89.3173 13.7469C89.4073 13.6907 89.4748 13.612 89.5197 13.5107C89.576 13.4095 89.621 13.2689 89.6547 13.0889L91.0382 6.64404C91.1169 6.28412 91.1 6.06479 90.9876 5.98605C90.8863 5.89607 90.6558 5.85108 90.2958 5.85108L90.3127 5.73298L93.9907 5.56427L94.1257 5.66549L93.7207 7.57197C94.1144 6.80713 94.6093 6.26724 95.2054 5.95231C95.8128 5.62613 96.4708 5.46304 97.1794 5.46304C98.0342 5.46304 98.6472 5.72736 99.0184 6.256C99.3896 6.78464 99.4795 7.48761 99.2883 8.36493L98.276 13.0889C98.2085 13.4489 98.2254 13.6738 98.3266 13.7638C98.4279 13.8425 98.6585 13.8819 99.0184 13.8819L99.0015 14H94.2944L94.3112 13.8819C94.4912 13.8819 94.6374 13.8763 94.7499 13.865C94.8736 13.8425 94.9748 13.8032 95.0536 13.7469C95.1436 13.6907 95.2111 13.612 95.256 13.5107C95.3123 13.4095 95.3573 13.2689 95.391 13.0889L96.437 8.22996C96.482 8.005 96.5102 7.77443 96.5214 7.53823C96.5439 7.30203 96.5326 7.08832 96.4877 6.89711C96.4427 6.69465 96.3527 6.53156 96.2177 6.40784C96.094 6.27287 95.8972 6.20538 95.6272 6.20538C95.391 6.20538 95.1661 6.26162 94.9524 6.3741C94.7499 6.48657 94.5643 6.63279 94.3956 6.81275C94.2269 6.98147 94.075 7.16706 93.9401 7.36951C93.8163 7.57197 93.7207 7.7688 93.6533 7.96001L92.5397 13.0889C92.4722 13.4489 92.4891 13.6738 92.5903 13.7638C92.6916 13.8425 92.9222 13.8819 93.2821 13.8819L93.2652 14H88.5581ZM104.488 14.1012C103.769 14.1012 103.156 13.9775 102.649 13.7301C102.143 13.4826 101.744 13.1621 101.452 12.7684C101.159 12.3635 100.968 11.9023 100.878 11.3849C100.799 10.8675 100.816 10.3389 100.929 9.799C101.041 9.24787 101.255 8.71361 101.57 8.19621C101.885 7.67882 102.29 7.21767 102.784 6.81275C103.291 6.40784 103.887 6.08166 104.573 5.83421C105.259 5.58676 106.035 5.46304 106.901 5.46304C107.475 5.46304 107.941 5.5249 108.301 5.64862C108.673 5.77235 108.959 5.93544 109.162 6.1379C109.364 6.32911 109.494 6.55406 109.55 6.81275C109.606 7.07145 109.606 7.33577 109.55 7.60571C109.449 8.06687 109.246 8.43804 108.942 8.71923C108.639 8.98917 108.285 9.20288 107.88 9.36035C107.486 9.51781 107.07 9.63029 106.631 9.69778C106.192 9.76526 105.782 9.82712 105.399 9.88336C105.017 9.92835 104.691 9.98459 104.421 10.0521C104.162 10.1196 104.01 10.232 103.965 10.3895C103.965 10.7607 104.005 11.1319 104.084 11.503C104.162 11.8629 104.286 12.1835 104.455 12.4647C104.623 12.7459 104.843 12.9765 105.113 13.1564C105.394 13.3251 105.726 13.4095 106.108 13.4095C106.614 13.4095 107.087 13.2633 107.525 12.9708C107.975 12.6784 108.38 12.3129 108.74 11.8742L108.774 11.9417C108.583 12.2791 108.329 12.5828 108.015 12.8527C107.7 13.1227 107.351 13.3533 106.969 13.5445C106.586 13.7244 106.181 13.865 105.754 13.9663C105.338 14.0562 104.916 14.1012 104.488 14.1012ZM104.084 8.90482C104.05 9.09603 104.022 9.30411 103.999 9.52906C103.977 9.74277 103.965 9.96772 103.965 10.2039C104.067 10.0914 104.218 9.99584 104.421 9.9171C104.635 9.82712 104.871 9.73152 105.13 9.63029C105.388 9.51781 105.658 9.39409 105.939 9.25912C106.221 9.1129 106.485 8.93294 106.732 8.71923C106.991 8.50553 107.222 8.25245 107.424 7.96001C107.627 7.65633 107.773 7.29078 107.863 6.86337C107.941 6.51469 107.925 6.21663 107.812 5.96918C107.711 5.71049 107.469 5.58114 107.087 5.58114C106.704 5.58114 106.35 5.67674 106.024 5.86795C105.698 6.04791 105.405 6.28974 105.146 6.59343C104.899 6.89711 104.685 7.25141 104.505 7.65633C104.325 8.05 104.185 8.46616 104.084 8.90482ZM109.368 13.8819C109.548 13.8819 109.694 13.8763 109.806 13.865C109.93 13.8425 110.031 13.8032 110.11 13.7469C110.2 13.6907 110.268 13.612 110.313 13.5107C110.369 13.4095 110.414 13.2689 110.447 13.0889L111.831 6.64404C111.91 6.28412 111.893 6.06479 111.78 5.98605C111.679 5.89607 111.449 5.85108 111.089 5.85108L111.105 5.73298L114.783 5.56427L114.918 5.66549L114.446 7.9094C114.615 7.56072 114.828 7.24017 115.087 6.94773C115.357 6.64404 115.644 6.38534 115.948 6.17164C116.263 5.94669 116.589 5.77235 116.926 5.64862C117.275 5.51365 117.612 5.44617 117.938 5.44617C118.535 5.44617 118.945 5.60363 119.17 5.91857C119.395 6.22225 119.468 6.55968 119.389 6.93085C119.322 7.26828 119.136 7.57759 118.833 7.85879C118.54 8.13998 118.175 8.28057 117.736 8.28057C117.399 8.28057 117.157 8.20184 117.01 8.04437C116.876 7.8869 116.769 7.71819 116.69 7.53823C116.622 7.34702 116.544 7.17268 116.454 7.01521C116.375 6.85774 116.218 6.77901 115.981 6.77901C115.824 6.77901 115.661 6.82963 115.492 6.93085C115.323 7.03208 115.166 7.16706 115.02 7.33577C114.873 7.49324 114.738 7.67882 114.615 7.89253C114.491 8.09499 114.395 8.30307 114.328 8.51677L113.333 13.0889C113.265 13.4489 113.282 13.6738 113.383 13.7638C113.484 13.8425 113.715 13.8819 114.075 13.8819L114.058 14H109.351L109.368 13.8819Z" fill="#1E1E1E"/>
</svg>
