<svg width="19" height="20" viewBox="0 0 19 20" fill="none" xmlns="http://www.w3.org/2000/svg">
<path d="M10.2917 9.80219C10.1413 9.80219 9.99089 9.74677 9.87214 9.62802C9.64256 9.39844 9.64256 9.01844 9.87214 8.78885L16.3638 2.29719C16.5934 2.0676 16.9734 2.0676 17.203 2.29719C17.4326 2.52677 17.4326 2.90677 17.203 3.13635L10.7113 9.62802C10.5926 9.74677 10.4421 9.80219 10.2917 9.80219Z" fill="#292D32"/>
<path d="M17.4167 6.477C17.0921 6.477 16.8229 6.20784 16.8229 5.88325V2.677H13.6167C13.2921 2.677 13.0229 2.40784 13.0229 2.08325C13.0229 1.75867 13.2921 1.4895 13.6167 1.4895H17.4167C17.7413 1.4895 18.0104 1.75867 18.0104 2.08325V5.88325C18.0104 6.20784 17.7413 6.477 17.4167 6.477Z" fill="#292D32"/>
<path d="M11.8749 18.5103H7.12492C2.82617 18.5103 0.989502 16.6737 0.989502 12.3749V7.62492C0.989502 3.32617 2.82617 1.4895 7.12492 1.4895H8.70825C9.03284 1.4895 9.302 1.75867 9.302 2.08325C9.302 2.40784 9.03284 2.677 8.70825 2.677H7.12492C3.47534 2.677 2.177 3.97534 2.177 7.62492V12.3749C2.177 16.0245 3.47534 17.3228 7.12492 17.3228H11.8749C15.5245 17.3228 16.8228 16.0245 16.8228 12.3749V10.7916C16.8228 10.467 17.092 10.1978 17.4166 10.1978C17.7412 10.1978 18.0103 10.467 18.0103 10.7916V12.3749C18.0103 16.6737 16.1737 18.5103 11.8749 18.5103Z" fill="#292D32"/>
</svg>
