<svg width="18" height="18" viewBox="0 0 18 18" fill="none" xmlns="http://www.w3.org/2000/svg">
<path d="M5.28814 4.22699C4.99525 3.9341 4.52038 3.9341 4.22748 4.22699C3.93459 4.51989 3.93459 4.99476 4.22748 5.28765L7.93979 8.99996L4.22748 12.7123C3.93459 13.0052 3.93459 13.48 4.22748 13.7729C4.52038 14.0658 4.99525 14.0658 5.28814 13.7729L9.00045 10.0606L12.7128 13.7729C13.0057 14.0658 13.4805 14.0658 13.7734 13.7729C14.0663 13.48 14.0663 13.0052 13.7734 12.7123L10.0611 8.99996L13.7734 5.28765C14.0663 4.99476 14.0663 4.51989 13.7734 4.22699C13.4805 3.9341 13.0057 3.9341 12.7128 4.22699L9.00045 7.9393L5.28814 4.22699Z" fill="#475367"/>
</svg>
