<svg width="40" height="40" viewBox="0 0 40 40" fill="none" xmlns="http://www.w3.org/2000/svg">
<path d="M20.0003 37.9168C18.8837 37.9168 17.7503 37.6335 16.7503 37.0501L6.85034 31.3335C4.85034 30.1668 3.60034 28.0168 3.60034 25.7001V14.3002C3.60034 11.9835 4.85034 9.83352 6.85034 8.66685L16.7503 2.9502C18.7503 1.78353 21.2337 1.78353 23.2503 2.9502L33.1503 8.66685C35.1503 9.83352 36.4003 11.9835 36.4003 14.3002V25.7001C36.4003 28.0168 35.1503 30.1668 33.1503 31.3335L23.2503 37.0501C22.2503 37.6335 21.117 37.9168 20.0003 37.9168ZM20.0003 4.5835C19.317 4.5835 18.617 4.76684 18.0003 5.11684L8.10034 10.8335C6.86701 11.5502 6.10034 12.8669 6.10034 14.3002V25.7001C6.10034 27.1168 6.86701 28.4502 8.10034 29.1668L18.0003 34.8835C19.2337 35.6001 20.767 35.6001 22.0003 34.8835L31.9003 29.1668C33.1337 28.4502 33.9003 27.1335 33.9003 25.7001V14.3002C33.9003 12.8835 33.1337 11.5502 31.9003 10.8335L22.0003 5.11684C21.3837 4.76684 20.6837 4.5835 20.0003 4.5835Z" fill="#292D32"/>
<path d="M19.9998 19.5835C17.1665 19.5835 14.8665 17.2835 14.8665 14.4502C14.8665 11.6168 17.1665 9.31689 19.9998 9.31689C22.8331 9.31689 25.1331 11.6168 25.1331 14.4502C25.1331 17.2835 22.8331 19.5835 19.9998 19.5835ZM19.9998 11.8169C18.5498 11.8169 17.3665 13.0002 17.3665 14.4502C17.3665 15.9002 18.5498 17.0835 19.9998 17.0835C21.4498 17.0835 22.6331 15.9002 22.6331 14.4502C22.6331 13.0002 21.4498 11.8169 19.9998 11.8169Z" fill="#292D32"/>
<path d="M26.6666 29.0167C25.9833 29.0167 25.4166 28.4501 25.4166 27.7667C25.4166 25.4667 22.9833 23.5835 19.9999 23.5835C17.0166 23.5835 14.5833 25.4667 14.5833 27.7667C14.5833 28.4501 14.0166 29.0167 13.3333 29.0167C12.6499 29.0167 12.0833 28.4501 12.0833 27.7667C12.0833 24.0834 15.6333 21.0835 19.9999 21.0835C24.3666 21.0835 27.9166 24.0834 27.9166 27.7667C27.9166 28.4501 27.3499 29.0167 26.6666 29.0167Z" fill="#292D32"/>
</svg>
